<svg xmlns="http://www.w3.org/2000/svg" width="256" height="256" viewBox="0 0 256 256">
  <rect width="256" height="256" rx="48" fill="#1b1f24"/>
  <!-- CPU die -->
  <rect x="72" y="72" width="112" height="112" rx="12" fill="none" stroke="#5cdb95" stroke-width="10"/>
  <rect x="104" y="104" width="48" height="48" rx="6" fill="#5cdb95" opacity="0.25"/>
  <!-- pins -->
  <g fill="#5cdb95">
    <rect x="96" y="48" width="10" height="20" rx="2"/>
    <rect x="123" y="48" width="10" height="20" rx="2"/>
    <rect x="150" y="48" width="10" height="20" rx="2"/>
    <rect x="96" y="188" width="10" height="20" rx="2"/>
    <rect x="123" y="188" width="10" height="20" rx="2"/>
    <rect x="150" y="188" width="10" height="20" rx="2"/>
    <rect x="48" y="96" width="20" height="10" rx="2"/>
    <rect x="48" y="123" width="20" height="10" rx="2"/>
    <rect x="48" y="150" width="20" height="10" rx="2"/>
    <rect x="188" y="96" width="20" height="10" rx="2"/>
    <rect x="188" y="123" width="20" height="10" rx="2"/>
    <rect x="188" y="150" width="20" height="10" rx="2"/>
  </g>
  <!-- temperature accent -->
  <circle cx="128" cy="128" r="14" fill="#e74c3c"/>
</svg>
